<mxfile host="app.diagrams.net" modified="2023-11-01T05:55:53.500Z" agent="Mozilla/5.0 (Windows NT 10.0; Win64; x64) AppleWebKit/537.36 (KHTML, like Gecko) Chrome/118.0.0.0 Safari/537.36 Edg/118.0.2088.76" etag="xvJA8KW8_o-syNjwixDr" version="22.0.8" type="github">
  <diagram name="第 1 页" id="MrfcRsIQQd7lxEMBYUfb">
    <mxGraphModel dx="1524" dy="854" grid="0" gridSize="10" guides="1" tooltips="1" connect="1" arrows="1" fold="1" page="1" pageScale="1" pageWidth="1169" pageHeight="827" math="1" shadow="0">
      <root>
        <mxCell id="0" />
        <mxCell id="1" parent="0" />
        <mxCell id="afm6o2HVS6hBIHGYeLV3-1" value="&lt;font style=&quot;font-size: 14px;&quot; face=&quot;Times New Roman&quot;&gt;&lt;b&gt;Effective Computation Rate Maximization&lt;/b&gt;&lt;/font&gt;" style="rounded=0;whiteSpace=wrap;html=1;align=center;fillColor=#d5e8d4;strokeColor=#82b366;" parent="1" vertex="1">
          <mxGeometry x="180" y="80" width="300" height="60" as="geometry" />
        </mxCell>
        <mxCell id="afm6o2HVS6hBIHGYeLV3-3" value="Vector \(s\), Vector \(x\), Vector \(\tau\) and \(a\)" style="rounded=0;whiteSpace=wrap;html=1;fontStyle=0" parent="1" vertex="1">
          <mxGeometry x="780" y="80" width="200" height="60" as="geometry" />
        </mxCell>
        <mxCell id="afm6o2HVS6hBIHGYeLV3-8" value="&lt;font style=&quot;font-size: 14px;&quot; face=&quot;Times New Roman&quot;&gt;Sloving Problem &lt;b&gt;P&lt;/b&gt;&lt;/font&gt;" style="rounded=0;whiteSpace=wrap;html=1;align=center;" parent="1" vertex="1">
          <mxGeometry x="480" y="80" width="300" height="60" as="geometry" />
        </mxCell>
        <mxCell id="afm6o2HVS6hBIHGYeLV3-9" value="&lt;font face=&quot;Times New Roman&quot;&gt;&lt;b&gt;Heterogeneous HAP Selection&lt;/b&gt;&lt;/font&gt;" style="rounded=0;whiteSpace=wrap;html=1;align=center;fillColor=#d5e8d4;strokeColor=#82b366;" parent="1" vertex="1">
          <mxGeometry x="180" y="240" width="300" height="60" as="geometry" />
        </mxCell>
        <mxCell id="afm6o2HVS6hBIHGYeLV3-10" value="Vector \(s\)" style="rounded=0;whiteSpace=wrap;html=1;fontStyle=0" parent="1" vertex="1">
          <mxGeometry x="780" y="240" width="200" height="60" as="geometry" />
        </mxCell>
        <mxCell id="afm6o2HVS6hBIHGYeLV3-11" value="&lt;b&gt;WADT Algorithm&lt;/b&gt; to Slove&amp;nbsp; Problem &lt;b&gt;P3&lt;/b&gt;" style="rounded=0;whiteSpace=wrap;html=1;align=center;" parent="1" vertex="1">
          <mxGeometry x="480" y="240" width="300" height="60" as="geometry" />
        </mxCell>
        <mxCell id="afm6o2HVS6hBIHGYeLV3-12" value="&lt;font style=&quot;font-size: 14px;&quot; face=&quot;Times New Roman&quot;&gt;&lt;b&gt;Offloaing Decision&lt;/b&gt;&lt;/font&gt;" style="rounded=0;whiteSpace=wrap;html=1;align=center;fillColor=#d5e8d4;strokeColor=#82b366;" parent="1" vertex="1">
          <mxGeometry x="180" y="390" width="300" height="60" as="geometry" />
        </mxCell>
        <mxCell id="afm6o2HVS6hBIHGYeLV3-13" value="Vector \(x\)" style="rounded=0;whiteSpace=wrap;html=1;fontStyle=0" parent="1" vertex="1">
          <mxGeometry x="780" y="390" width="200" height="60" as="geometry" />
        </mxCell>
        <mxCell id="afm6o2HVS6hBIHGYeLV3-14" value="&lt;b&gt;Coordinate Descend A&lt;/b&gt;&lt;span style=&quot;border-color: var(--border-color);&quot;&gt;&lt;b&gt;lgorithm&lt;/b&gt; to Slove Problem &lt;b&gt;P4&lt;/b&gt;&lt;/span&gt;" style="rounded=0;whiteSpace=wrap;html=1;align=center;" parent="1" vertex="1">
          <mxGeometry x="480" y="390" width="300" height="60" as="geometry" />
        </mxCell>
        <mxCell id="afm6o2HVS6hBIHGYeLV3-15" value="&lt;font style=&quot;font-size: 14px;&quot; face=&quot;Times New Roman&quot;&gt;&lt;b&gt;Time Resource Allocation&lt;/b&gt;&lt;/font&gt;" style="rounded=0;whiteSpace=wrap;html=1;align=center;fillColor=#d5e8d4;strokeColor=#82b366;" parent="1" vertex="1">
          <mxGeometry x="180" y="550" width="300" height="60" as="geometry" />
        </mxCell>
        <mxCell id="afm6o2HVS6hBIHGYeLV3-16" value="Vector \(\tau\) and \(a\)" style="rounded=0;whiteSpace=wrap;html=1;fontStyle=0" parent="1" vertex="1">
          <mxGeometry x="780" y="550" width="200" height="60" as="geometry" />
        </mxCell>
        <mxCell id="afm6o2HVS6hBIHGYeLV3-17" value="&lt;font style=&quot;&quot; face=&quot;Times New Roman&quot;&gt;&lt;b&gt;Bi-Section Search Algorithm&lt;/b&gt; to Slove Problem &lt;b style=&quot;font-size: 14px;&quot;&gt;P5&lt;/b&gt;&lt;/font&gt;" style="rounded=0;whiteSpace=wrap;html=1;align=center;" parent="1" vertex="1">
          <mxGeometry x="480" y="550" width="300" height="60" as="geometry" />
        </mxCell>
        <mxCell id="afm6o2HVS6hBIHGYeLV3-18" value="" style="html=1;shadow=0;dashed=0;align=center;verticalAlign=middle;shape=mxgraph.arrows2.arrow;dy=0.6;dx=40;direction=south;notch=0;fillColor=#dae8fc;strokeColor=#6c8ebf;" parent="1" vertex="1">
          <mxGeometry x="590" y="160" width="80" height="70" as="geometry" />
        </mxCell>
        <mxCell id="afm6o2HVS6hBIHGYeLV3-21" value="" style="html=1;shadow=0;dashed=0;align=center;verticalAlign=middle;shape=mxgraph.arrows2.arrow;dy=0.6;dx=40;direction=south;notch=0;fillColor=#dae8fc;strokeColor=#6c8ebf;" parent="1" vertex="1">
          <mxGeometry x="590" y="311" width="80" height="70" as="geometry" />
        </mxCell>
        <mxCell id="afm6o2HVS6hBIHGYeLV3-22" value="" style="html=1;shadow=0;dashed=0;align=center;verticalAlign=middle;shape=mxgraph.arrows2.arrow;dy=0.6;dx=40;direction=south;notch=0;fillColor=#dae8fc;strokeColor=#6c8ebf;" parent="1" vertex="1">
          <mxGeometry x="590" y="470" width="80" height="70" as="geometry" />
        </mxCell>
      </root>
    </mxGraphModel>
  </diagram>
</mxfile>
